<svg width="28" height="28" viewBox="0 0 28 28" fill="none" xmlns="http://www.w3.org/2000/svg">
    <g clip-path="url(#clip0_5_1325)">
        <path d="M22.1667 3.5H17.29C16.8 2.14667 15.5167 1.16667 14 1.16667C12.4833 1.16667 11.2 2.14667 10.71 3.5H5.83333C5.67 3.5 5.51833 3.51167 5.36667 3.54667C4.91167 3.64 4.50333 3.87333 4.18833 4.18833C3.97833 4.39833 3.80333 4.655 3.68667 4.935C3.57 5.20333 3.5 5.50667 3.5 5.83333V22.1667C3.5 22.4817 3.57 22.7967 3.68667 23.0767C3.80333 23.3567 3.97833 23.6017 4.18833 23.8233C4.50333 24.1383 4.91167 24.3717 5.36667 24.465C5.51833 24.4883 5.67 24.5 5.83333 24.5H22.1667C23.45 24.5 24.5 23.45 24.5 22.1667V5.83333C24.5 4.55 23.45 3.5 22.1667 3.5ZM14 3.20833C14.4783 3.20833 14.875 3.605 14.875 4.08333C14.875 4.56167 14.4783 4.95833 14 4.95833C13.5217 4.95833 13.125 4.56167 13.125 4.08333C13.125 3.605 13.5217 3.20833 14 3.20833ZM22.1667 22.1667H5.83333V5.83333H22.1667V22.1667Z" fill="#424242"/>
        <g clip-path="url(#clip1_5_1325)">
            <path d="M7.875 17.5729V20.1249H10.4271L17.954 12.598L15.4019 10.0459L7.875 17.5729ZM19.9276 10.6244C20.1931 10.359 20.1931 9.93022 19.9276 9.66481L18.3351 8.07231C18.0697 7.80689 17.641 7.80689 17.3756 8.07231L16.1301 9.31772L18.6822 11.8698L19.9276 10.6244Z" fill="#424242"/>
        </g>
    </g>
    <defs>
        <clipPath id="clip0_5_1325">
            <rect width="28" height="28" fill="white"/>
        </clipPath>
        <clipPath id="clip1_5_1325">
            <rect width="16.3333" height="16.3333" fill="white" transform="translate(5.8335 5.83333)"/>
        </clipPath>
    </defs>
</svg>
