<svg width="36" height="36" viewBox="0 0 36 36" fill="none" xmlns="http://www.w3.org/2000/svg">
<path d="M28.5 4.5H22.23C21.6 2.76 19.95 1.5 18 1.5C16.05 1.5 14.4 2.76 13.77 4.5H7.5C7.29 4.5 7.095 4.515 6.9 4.56C6.315 4.68 5.79 4.98 5.385 5.385C5.115 5.655 4.89 5.985 4.74 6.345C4.59 6.69 4.5 7.08 4.5 7.5V28.5C4.5 28.905 4.59 29.31 4.74 29.67C4.89 30.03 5.115 30.345 5.385 30.63C5.79 31.035 6.315 31.335 6.9 31.455C7.095 31.485 7.29 31.5 7.5 31.5H28.5C30.15 31.5 31.5 30.15 31.5 28.5V7.5C31.5 5.85 30.15 4.5 28.5 4.5ZM18 4.125C18.615 4.125 19.125 4.635 19.125 5.25C19.125 5.865 18.615 6.375 18 6.375C17.385 6.375 16.875 5.865 16.875 5.25C16.875 4.635 17.385 4.125 18 4.125ZM28.5 28.5H7.5V7.5H28.5V28.5Z" fill="#424242"/>
<path d="M18.4132 16.704C15.7387 16.0088 14.8786 15.2901 14.8786 14.1708C14.8786 12.8866 16.0686 11.9912 18.0598 11.9912C20.1569 11.9912 20.9345 12.9926 21.0052 14.4654H23.609C23.5266 12.4389 22.2895 10.5774 19.827 9.97648V7.39624H16.2925V9.94113C14.0068 10.436 12.1688 11.9205 12.1688 14.1944C12.1688 16.916 14.4191 18.2709 17.7063 19.0603C20.6518 19.7672 21.2409 20.8041 21.2409 21.8998C21.2409 22.7127 20.6636 24.0087 18.0598 24.0087C15.6327 24.0087 14.6783 22.9248 14.5487 21.5345H11.9567C12.0981 24.1148 14.0303 25.5639 16.2925 26.047V28.6037H19.827V26.0706C22.1245 25.6346 23.9507 24.3033 23.9507 21.888C23.9507 18.5419 21.0877 17.3991 18.4132 16.704Z" fill="#424242"/>
</svg>
