<svg width="36" height="36" viewBox="0 0 36 36" fill="none" xmlns="http://www.w3.org/2000/svg">
<path fill-rule="evenodd" clip-rule="evenodd" d="M4 0C1.79086 0 0 1.79086 0 4V32C0 34.2091 1.79086 36 4 36H32C34.2091 36 36 34.2091 36 32V4C36 1.79086 34.2091 0 32 0H4ZM28.759 9.63367C28.3452 9.63367 27.9792 9.79377 27.661 10.114L13.3394 24.6198L6.89467 18.1354C6.57641 17.8152 6.21042 17.6551 5.79668 17.6551C5.38294 17.6551 5.01695 17.8152 4.69869 18.1354C4.41226 18.4236 4.26904 18.7838 4.26904 19.2161C4.26904 19.6484 4.41226 20.0087 4.69869 20.2969L12.2891 27.886C12.5756 28.2062 12.9336 28.3663 13.3632 28.3663C13.7929 28.3663 14.1509 28.2062 14.4374 27.886L14.6283 27.6938L29.8569 12.2754C30.1434 11.9873 30.2866 11.627 30.2866 11.1947C30.2866 10.7624 30.1434 10.4022 29.8569 10.114C29.5387 9.79377 29.1727 9.63367 28.759 9.63367Z" fill="#424242"/>
</svg>
