<svg width="36" height="36" viewBox="0 0 36 36" fill="none" xmlns="http://www.w3.org/2000/svg">
<rect x="1" y="1" width="34" height="34" rx="3" stroke="#616161" stroke-width="2"/>
<rect x="1" y="1" width="34" height="34" rx="3" stroke="#424242" stroke-width="2"/>
<rect width="36" height="36" rx="4" fill="#424242"/>
<path fill-rule="evenodd" clip-rule="evenodd" d="M27.661 10.114C27.9792 9.79377 28.3452 9.63367 28.759 9.63367C29.1727 9.63367 29.5387 9.79377 29.8569 10.114C30.1434 10.4022 30.2866 10.7624 30.2866 11.1947C30.2866 11.627 30.1434 11.9873 29.8569 12.2754L14.6283 27.6938C14.5965 27.7259 14.5647 27.7579 14.5328 27.7899C14.501 27.8219 14.4692 27.854 14.4374 27.886C14.1509 28.2062 13.7929 28.3663 13.3632 28.3663C12.9336 28.3663 12.5756 28.2062 12.2891 27.886L4.69869 20.2969C4.41226 20.0087 4.26904 19.6484 4.26904 19.2161C4.26904 18.7838 4.41226 18.4236 4.69869 18.1354C5.01695 17.8152 5.38294 17.6551 5.79668 17.6551C6.21042 17.6551 6.57641 17.8152 6.89467 18.1354L13.3394 24.6198L27.661 10.114Z" fill="white"/>
</svg>
