<svg width="36" height="36" viewBox="0 0 36 36" fill="none" xmlns="http://www.w3.org/2000/svg">
    <g clip-path="url(#clip0_444_29)">
        <path d="M15.2409 28.7644L10.2175 25.931C9.66464 25.6049 9.26008 25.0768 9.08925 24.4582C8.91842 23.8395 8.9947 23.1786 9.30191 22.6151L12.0487 17.7402L17.4432 8.16363C17.7672 7.60867 18.2944 7.20152 18.9133 7.02833C19.5322 6.85514 20.1942 6.9295 20.7592 7.23567L25.7826 10.0691C26.3354 10.3951 26.7399 10.9232 26.9107 11.5419C27.0816 12.1606 27.0054 12.8214 26.6981 13.385L18.5568 27.8364C18.2328 28.3914 17.7055 28.7985 17.0867 28.9717C16.4678 29.1449 15.8059 29.0705 15.2409 28.7644Z" stroke="#D1D1D9" stroke-width="2.47457" stroke-linecap="round" stroke-linejoin="round"/>
        <path d="M21.2166 23.1233L11.9614 17.9019" stroke="#D1D1D9" stroke-width="2.47457" stroke-linecap="round" stroke-linejoin="round"/>
    </g>
</svg>
