<svg width="36" height="36" viewBox="0 0 36 36" fill="none" xmlns="http://www.w3.org/2000/svg">
<path fill-rule="evenodd" clip-rule="evenodd" d="M5.85 4.5H30.15C30.75 4.5 31.5 5.1 31.5 5.85V30.15C31.5 30.75 30.75 31.5 30.15 31.5H5.85C5.1 31.5 4.5 30.75 4.5 30.15V5.85C4.5 5.1 5.1 4.5 5.85 4.5ZM10.8001 18L14.7001 21.9C15.0901 22.29 15.0901 22.91 14.7001 23.3C14.3101 23.69 13.6901 23.69 13.3001 23.3L8.7101 18.7C8.3201 18.31 8.3201 17.68 8.7101 17.29L13.3001 12.7C13.6901 12.31 14.3101 12.31 14.7001 12.7C15.0901 13.09 15.0901 13.71 14.7001 14.1L10.8001 18ZM25.2001 18L21.3001 21.9C20.9101 22.29 20.9101 22.91 21.3001 23.3C21.6901 23.69 22.3101 23.69 22.7001 23.3L27.2901 18.7C27.6801 18.31 27.6801 17.68 27.2901 17.29L22.7001 12.7C22.3101 12.31 21.6901 12.31 21.3001 12.7C20.9101 13.09 20.9101 13.71 21.3001 14.1L25.2001 18Z" fill="#424242"/>
</svg>
