<svg width="29" height="28" viewBox="0 0 29 28" fill="none" xmlns="http://www.w3.org/2000/svg">
<g clip-path="url(#clip0_3591_6358)">
<path d="M8.58561 6.99967V3.49967C8.58561 3.19026 8.70853 2.89351 8.92732 2.67472C9.14611 2.45592 9.44286 2.33301 9.75228 2.33301H23.7523C24.0617 2.33301 24.3584 2.45592 24.5772 2.67472C24.796 2.89351 24.9189 3.19026 24.9189 3.49967V19.833C24.9189 20.1424 24.796 20.4392 24.5772 20.658C24.3584 20.8768 24.0617 20.9997 23.7523 20.9997H20.2523V24.4997C20.2523 25.1437 19.7273 25.6663 19.0774 25.6663H5.09378C4.93993 25.6673 4.78741 25.6378 4.64499 25.5796C4.50257 25.5214 4.37305 25.4356 4.26388 25.3272C4.15471 25.2188 4.06804 25.0899 4.00884 24.9478C3.94965 24.8058 3.9191 24.6535 3.91895 24.4997L3.92245 8.16634C3.92245 7.52234 4.44745 6.99967 5.09611 6.99967H8.58561ZM6.25461 9.33301L6.25228 23.333H17.9189V9.33301H6.25461ZM10.9189 6.99967H19.2523C19.8046 6.99967 20.2523 7.44739 20.2523 7.99967V18.6663H22.5856V4.66634H10.9189V6.99967ZM8.58561 12.833H15.5856V15.1663H8.58561V12.833ZM8.58561 17.4997H15.5856V19.833H8.58561V17.4997Z" fill="#424242"/>
</g>
<defs>
<clipPath id="clip0_3591_6358">
<rect width="28" height="28" fill="white" transform="translate(0.418945)"/>
</clipPath>
</defs>
</svg>
