<svg width="36" height="36" viewBox="0 0 36 36" fill="none" xmlns="http://www.w3.org/2000/svg">
<path d="M28.5 31.5H12V10.5H28.5V31.5ZM28.5 7.5H12C11.2044 7.5 10.4413 7.81607 9.87868 8.37868C9.31607 8.94129 9 9.70435 9 10.5V31.5C9 32.2956 9.31607 33.0587 9.87868 33.6213C10.4413 34.1839 11.2044 34.5 12 34.5H28.5C29.2956 34.5 30.0587 34.1839 30.6213 33.6213C31.1839 33.0587 31.5 32.2956 31.5 31.5V10.5C31.5 9.70435 31.1839 8.94129 30.6213 8.37868C30.0587 7.81607 29.2956 7.5 28.5 7.5ZM24 1.5H6C5.20435 1.5 4.44129 1.81607 3.87868 2.37868C3.31607 2.94129 3 3.70435 3 4.5V25.5H6V4.5H24V1.5Z" fill="#2C2F36"/>
</svg>
