<svg width="36" height="36" viewBox="0 0 36 36" fill="none" xmlns="http://www.w3.org/2000/svg">
<mask id="mask0" mask-type="alpha" maskUnits="userSpaceOnUse" x="4" y="5" width="28" height="26">
<path d="M14.9967 28.9912V21.4912H20.9967V28.9912C20.9967 29.8162 21.6717 30.4912 22.4967 30.4912H26.9967C27.8217 30.4912 28.4967 29.8162 28.4967 28.9912V18.4912H31.0467C31.7367 18.4912 32.0667 17.6362 31.5417 17.1862L19.0017 5.89123C18.4317 5.38123 17.5617 5.38123 16.9917 5.89123L4.45167 17.1862C3.94167 17.6362 4.25667 18.4912 4.94667 18.4912H7.49667V28.9912C7.49667 29.8162 8.17167 30.4912 8.99667 30.4912H13.4967C14.3217 30.4912 14.9967 29.8162 14.9967 28.9912Z" fill="black"/>
</mask>
<g mask="url(#mask0)">
<rect width="36" height="36" fill="#424242"/>
</g>
</svg>
