<svg width="158" height="45" viewBox="0 0 158 45" fill="none" xmlns="http://www.w3.org/2000/svg">
<path d="M8.99994 0C6.7908 0 4.99994 1.79077 4.99994 4V38.0222C4.98792 40.2212 3.20169 42 1 42H0V44H158V42H157C154.791 42 153 40.2092 153 38V4C153 1.79077 151.209 0 149 0H8.99994Z" fill="#DBDBDB"/>
<path d="M5.99945 4L6 39C5.99112 40.6243 4 43 2 43H0V44H158V43H156C153.5 42.5 152 40.6355 152 39V4C152 2.34326 150.656 1 149 1H8.99945C7.34259 1 5.99945 2.34326 5.99945 4Z" fill="white"/>
<rect y="43" width="158" height="2" fill="white"/>
</svg>

