<svg width="36" height="36" viewBox="0 0 36 36" fill="none" xmlns="http://www.w3.org/2000/svg">
<path d="M15.45 11.55C14.865 12.135 14.865 13.065 15.45 13.65L18.3 16.5H4.5C3.675 16.5 3 17.175 3 18C3 18.825 3.675 19.5 4.5 19.5H18.3L15.45 22.35C14.865 22.935 14.865 23.865 15.45 24.45C16.035 25.035 16.965 25.035 17.55 24.45L22.935 19.065C23.52 18.48 23.52 17.535 22.935 16.95L17.55 11.55C16.965 10.965 16.035 10.965 15.45 11.55ZM30 28.5H19.5C18.675 28.5 18 29.175 18 30C18 30.825 18.675 31.5 19.5 31.5H30C31.65 31.5 33 30.15 33 28.5V7.5C33 5.85 31.65 4.5 30 4.5H19.5C18.675 4.5 18 5.175 18 6C18 6.825 18.675 7.5 19.5 7.5H30V28.5Z" fill="#424242"/>
</svg>
