<svg width="36" height="36" viewBox="0 0 36 36" fill="none" xmlns="http://www.w3.org/2000/svg">
<path d="M15.3697 6C13.5166 6 11.705 6.53983 10.1642 7.55123C8.62335 8.56263 7.42241 10.0002 6.71323 11.6821C6.00406 13.364 5.81851 15.2147 6.18004 17.0002C6.54157 18.7856 7.43396 20.4257 8.74434 21.713C10.0547 23.0003 11.7243 23.8769 13.5418 24.2321C15.3594 24.5872 17.2433 24.4049 18.9554 23.7083C20.6675 23.0116 22.1308 21.8318 23.1604 20.3182C24.19 18.8045 24.7395 17.0249 24.7395 15.2045C24.7393 12.7633 23.7521 10.4222 21.995 8.69609C20.2379 6.96996 17.8547 6.00016 15.3697 6V6Z" stroke="#424242" stroke-width="3" stroke-miterlimit="10"/>
<path d="M21.7396 22.072L28.2833 28.5003" stroke="#424242" stroke-width="3" stroke-miterlimit="10" stroke-linecap="round"/>
</svg>
