<svg width="36" height="36" viewBox="0 0 36 36" fill="none" xmlns="http://www.w3.org/2000/svg">
<path d="M28.71 19.41C28.77 18.96 28.8 18.495 28.8 18C28.8 17.52 28.77 17.04 28.695 16.59L31.74 14.22C32.01 14.01 32.085 13.605 31.92 13.305L29.04 8.32501C28.86 7.99501 28.485 7.89001 28.155 7.99501L24.57 9.43501C23.82 8.86501 23.025 8.38501 22.14 8.02501L21.6 4.21501C21.54 3.85501 21.24 3.60001 20.88 3.60001H15.12C14.76 3.60001 14.475 3.85501 14.415 4.21501L13.875 8.02501C12.99 8.38501 12.18 8.88001 11.445 9.43501L7.85998 7.99501C7.52998 7.87501 7.15498 7.99501 6.97498 8.32501L4.10998 13.305C3.92998 13.62 3.98998 14.01 4.28998 14.22L7.33498 16.59C7.25998 17.04 7.19998 17.535 7.19998 18C7.19998 18.465 7.22998 18.96 7.30498 19.41L4.25998 21.78C3.98998 21.99 3.91498 22.395 4.07998 22.695L6.95998 27.675C7.13998 28.005 7.51498 28.11 7.84498 28.005L11.43 26.565C12.18 27.135 12.975 27.615 13.86 27.975L14.4 31.785C14.475 32.145 14.76 32.4 15.12 32.4H20.88C21.24 32.4 21.54 32.145 21.585 31.785L22.125 27.975C23.01 27.615 23.82 27.135 24.555 26.565L28.14 28.005C28.47 28.125 28.845 28.005 29.025 27.675L31.905 22.695C32.085 22.365 32.01 21.99 31.725 21.78L28.71 19.41ZM18 23.4C15.03 23.4 12.6 20.97 12.6 18C12.6 15.03 15.03 12.6 18 12.6C20.97 12.6 23.4 15.03 23.4 18C23.4 20.97 20.97 23.4 18 23.4Z" fill="#2C2F36"/>
</svg>
