<svg width="18" height="18" viewBox="0 0 18 18" fill="none" xmlns="http://www.w3.org/2000/svg">
<path fill-rule="evenodd" clip-rule="evenodd" d="M16.0174 5.42272C14.3425 7.34834 10.8811 11.2687 9.74751 12.5899C9.56602 12.7991 9.29839 12.9344 9 12.9344C8.7293 12.9344 8.4832 12.8237 8.30479 12.6453C6.91128 11.2518 6.74517 11.0856 5.35166 9.69214C5.17324 9.51372 5.0625 9.26763 5.0625 8.99692C5.0625 8.45244 5.50239 8.01255 6.04688 8.01255C6.31758 8.01255 6.56367 8.12329 6.74209 8.30171C7.83721 9.39683 8.17559 9.73521 8.94463 10.5042C10.39 8.81848 13.586 5.22391 14.8661 3.74658C13.4242 2.13765 11.3305 1.125 9 1.125C4.65075 1.125 1.125 4.65075 1.125 9C1.125 13.3492 4.65075 16.875 9 16.875C13.3492 16.875 16.875 13.3492 16.875 9C16.875 7.71191 16.5657 6.49615 16.0174 5.42272Z" fill="#424242"/>
</svg>
