<svg width="36" height="36" viewBox="0 0 36 36" fill="none" xmlns="http://www.w3.org/2000/svg">
<path fill-rule="evenodd" clip-rule="evenodd" d="M5.85 4.5H30.15C30.75 4.5 31.5 5.1 31.5 5.85V30.15C31.5 30.75 30.75 31.5 30.15 31.5H5.85C5.1 31.5 4.5 30.75 4.5 30.15V5.85C4.5 5.1 5.1 4.5 5.85 4.5ZM10.5 10.5H13.5V13.5H10.5V10.5ZM16.5 10.5H25.5V13.5H16.5V10.5ZM16.5 16.5H25.5V19.5H16.5V16.5ZM25.5 22.5H16.5V25.5H25.5V22.5ZM13.5 16.5H10.5V19.5H13.5V16.5ZM10.5 22.5H13.5V25.5H10.5V22.5Z" fill="#424242"/>
</svg>
