<svg width="36" height="36" viewBox="0 0 36 36" fill="none" xmlns="http://www.w3.org/2000/svg">
<path d="M28.5 4.5H22.23C21.6 2.76 19.95 1.5 18 1.5C16.05 1.5 14.4 2.76 13.77 4.5H7.5C5.85 4.5 4.5 5.85 4.5 7.5V28.5C4.5 30.15 5.85 31.5 7.5 31.5H28.5C30.15 31.5 31.5 30.15 31.5 28.5V7.5C31.5 5.85 30.15 4.5 28.5 4.5ZM18 4.5C18.825 4.5 19.5 5.175 19.5 6C19.5 6.825 18.825 7.5 18 7.5C17.175 7.5 16.5 6.825 16.5 6C16.5 5.175 17.175 4.5 18 4.5ZM21 25.5H10.5V22.5H21V25.5ZM25.5 19.5H10.5V16.5H25.5V19.5ZM25.5 13.5H10.5V10.5H25.5V13.5Z" fill="#424242"/>
</svg>
