<svg width="36" height="36" viewBox="0 0 36 36" fill="none" xmlns="http://www.w3.org/2000/svg">
<path fill-rule="evenodd" clip-rule="evenodd" d="M9.34109 6.29724C11.1279 5.12442 13.2258 4.5 15.3698 4.5C18.244 4.50018 21.0058 5.62165 23.0462 7.62604C25.0875 9.63132 26.2393 12.3567 26.2395 15.2044C26.2395 17.3275 25.5985 19.4008 24.4007 21.1618C24.2083 21.4446 24.003 21.7174 23.7856 21.9793L29.3345 27.4303C29.9254 28.0108 29.9339 28.9605 29.3533 29.5515C28.7728 30.1425 27.8231 30.1509 27.2321 29.5704L21.5631 24.0014C20.927 24.4358 20.2427 24.8039 19.5207 25.0976C17.5379 25.9045 15.3575 26.1152 13.2541 25.7042C11.1507 25.2932 9.21499 24.278 7.69316 22.783C6.17105 21.2878 5.13137 19.3794 4.70988 17.2978C4.28835 15.2161 4.50495 13.0586 5.33108 11.0993C6.15709 9.1403 7.55403 7.47025 9.34109 6.29724ZM15.3697 7.5C13.8073 7.50002 12.2822 7.95527 10.9873 8.80522C9.69268 9.655 8.68773 10.86 8.09539 12.2649C7.50318 13.6694 7.34867 15.2133 7.65021 16.7025C7.95178 18.1919 8.69687 19.5637 9.79552 20.6429C10.8945 21.7225 12.2978 22.4606 13.8295 22.7599C15.3613 23.0592 16.9487 22.9054 18.39 22.3189C19.8311 21.7325 21.0586 20.7413 21.9201 19.4746C22.7815 18.2082 23.2395 16.7223 23.2395 15.2046M15.3697 7.5C17.4653 7.50016 19.4699 8.31829 20.9438 9.76615C22.4168 11.2131 23.2393 13.17 23.2395 15.2046" fill="#424242"/>
</svg>
